<?xml version="1.0" encoding="utf-8"?>
<!-- Generator: Adobe Illustrator 24.1.2, SVG Export Plug-In . SVG Version: 6.00 Build 0)  -->
<svg version="1.1" id="Livello_1" xmlns="http://www.w3.org/2000/svg" xmlns:xlink="http://www.w3.org/1999/xlink" x="0px" y="0px"
	 viewBox="0 0 504 216" style="enable-background:new 0 0 504 216;" xml:space="preserve">
<style type="text/css">
	.st0{clip-path:url(#SVGID_2_);fill:#DC143C;stroke:#000000;stroke-width:0.6122;}
	.st1{clip-path:url(#SVGID_4_);fill:#DC143C;stroke:#000000;stroke-width:0.6122;}
	.st2{clip-path:url(#SVGID_6_);fill:#DC143C;stroke:#000000;stroke-width:0.6122;}
	.st3{clip-path:url(#SVGID_8_);fill:#DC143C;stroke:#000000;stroke-width:0.6122;}
	.st4{clip-path:url(#SVGID_10_);fill:#DC143C;stroke:#000000;stroke-width:0.6122;}
	.st5{clip-path:url(#SVGID_12_);fill:#DC143C;stroke:#000000;stroke-width:0.6122;}
	.st6{clip-path:url(#SVGID_14_);fill:#DC143C;stroke:#000000;stroke-width:0.6122;}
	.st7{clip-path:url(#SVGID_16_);fill:#DC143C;stroke:#000000;stroke-width:0.6122;}
	.st8{clip-path:url(#SVGID_18_);fill:#DC143C;stroke:#000000;stroke-width:0.6122;}
	.st9{clip-path:url(#SVGID_20_);fill:#DC143C;stroke:#000000;stroke-width:0.6122;}
	.st10{clip-path:url(#SVGID_22_);fill:#DC143C;stroke:#000000;stroke-width:0.6122;}
	.st11{clip-path:url(#SVGID_24_);fill:#DC143C;stroke:#000000;stroke-width:0.6122;}
	.st12{clip-path:url(#SVGID_26_);fill:#DC143C;stroke:#000000;stroke-width:0.6122;}
	.st13{clip-path:url(#SVGID_28_);fill:#DC143C;stroke:#000000;stroke-width:0.6122;}
	.st14{clip-path:url(#SVGID_30_);fill:#DC143C;stroke:#000000;stroke-width:0.6122;}
	.st15{clip-path:url(#SVGID_32_);fill:#DC143C;stroke:#000000;stroke-width:0.6122;}
	.st16{clip-path:url(#SVGID_34_);fill:#DC143C;stroke:#000000;stroke-width:0.6122;}
	.st17{clip-path:url(#SVGID_36_);fill:#DC143C;stroke:#000000;stroke-width:0.6122;}
	.st18{clip-path:url(#SVGID_38_);fill:#DC143C;stroke:#000000;stroke-width:0.6122;}
	.st19{clip-path:url(#SVGID_40_);fill:#DC143C;stroke:#000000;stroke-width:0.6122;}
	.st20{clip-path:url(#SVGID_42_);fill:#DC143C;stroke:#000000;stroke-width:0.6122;}
	.st21{clip-path:url(#SVGID_44_);fill:#DC143C;stroke:#000000;stroke-width:0.6122;}
	.st22{clip-path:url(#SVGID_46_);fill:#DC143C;stroke:#000000;stroke-width:0.6122;}
	.st23{clip-path:url(#SVGID_48_);fill:#DC143C;stroke:#000000;stroke-width:0.6122;}
	.st24{clip-path:url(#SVGID_50_);fill:#DC143C;stroke:#000000;stroke-width:0.6122;}
	.st25{clip-path:url(#SVGID_52_);fill:#DC143C;stroke:#000000;stroke-width:0.6122;}
	.st26{clip-path:url(#SVGID_54_);fill:#DC143C;stroke:#000000;stroke-width:0.6122;}
	.st27{clip-path:url(#SVGID_56_);fill:#DC143C;stroke:#000000;stroke-width:0.6122;}
	.st28{clip-path:url(#SVGID_58_);fill:#DC143C;stroke:#000000;stroke-width:0.6122;}
	.st29{clip-path:url(#SVGID_60_);fill:#DC143C;stroke:#000000;stroke-width:0.6122;}
	.st30{clip-path:url(#SVGID_62_);fill:#DC143C;stroke:#000000;stroke-width:0.6122;}
	.st31{clip-path:url(#SVGID_64_);fill:#DC143C;stroke:#000000;stroke-width:0.6122;}
	.st32{clip-path:url(#SVGID_66_);fill:#DC143C;stroke:#000000;stroke-width:0.6122;}
	.st33{clip-path:url(#SVGID_68_);fill:#DC143C;stroke:#000000;stroke-width:0.6122;}
	.st34{clip-path:url(#SVGID_70_);fill:#DC143C;stroke:#000000;stroke-width:0.6122;}
	.st35{clip-path:url(#SVGID_72_);fill:#DC143C;stroke:#000000;stroke-width:0.6122;}
	.st36{clip-path:url(#SVGID_74_);fill:#DC143C;stroke:#000000;stroke-width:0.6122;}
	.st37{clip-path:url(#SVGID_76_);fill:#DC143C;stroke:#000000;stroke-width:0.6122;}
	.st38{clip-path:url(#SVGID_78_);fill:#DC143C;stroke:#000000;stroke-width:0.6122;}
	.st39{clip-path:url(#SVGID_80_);fill:#DC143C;stroke:#000000;stroke-width:0.6122;}
	.st40{clip-path:url(#SVGID_82_);fill:#DC143C;stroke:#000000;stroke-width:0.6122;}
	.st41{clip-path:url(#SVGID_84_);fill:#DC143C;stroke:#000000;stroke-width:0.6122;}
	.st42{clip-path:url(#SVGID_86_);fill:#DC143C;stroke:#000000;stroke-width:0.6122;}
	.st43{clip-path:url(#SVGID_88_);fill:#DC143C;stroke:#000000;stroke-width:0.6122;}
	.st44{clip-path:url(#SVGID_90_);fill:#DC143C;stroke:#000000;stroke-width:0.6122;}
	.st45{clip-path:url(#SVGID_92_);fill:#DC143C;stroke:#000000;stroke-width:0.6122;}
	.st46{clip-path:url(#SVGID_94_);fill:#DC143C;stroke:#000000;stroke-width:0.6122;}
	.st47{clip-path:url(#SVGID_96_);fill:#DC143C;stroke:#000000;stroke-width:0.6122;}
	.st48{clip-path:url(#SVGID_98_);fill:#DC143C;stroke:#000000;stroke-width:0.6122;}
	.st49{clip-path:url(#SVGID_100_);fill:#DC143C;stroke:#000000;stroke-width:0.6122;}
	.st50{clip-path:url(#SVGID_102_);fill:#DC143C;stroke:#000000;stroke-width:0.6122;}
	.st51{clip-path:url(#SVGID_104_);fill:#DC143C;stroke:#000000;stroke-width:0.6122;}
	.st52{clip-path:url(#SVGID_106_);fill:#F8F8FF;stroke:#000000;stroke-width:0.6122;}
	.st53{clip-path:url(#SVGID_108_);fill:#F8F8FF;stroke:#000000;stroke-width:0.6122;}
	.st54{clip-path:url(#SVGID_110_);fill:#F8F8FF;stroke:#000000;stroke-width:0.6122;}
	.st55{clip-path:url(#SVGID_112_);fill:#F8F8FF;stroke:#000000;stroke-width:0.6122;}
	.st56{clip-path:url(#SVGID_114_);fill:#F8F8FF;stroke:#000000;stroke-width:0.6122;}
	.st57{clip-path:url(#SVGID_116_);fill:#F8F8FF;stroke:#000000;stroke-width:0.6122;}
	.st58{clip-path:url(#SVGID_118_);fill:none;stroke:#DC143C;stroke-width:0.6;stroke-linecap:round;stroke-linejoin:round;}
	.st59{clip-path:url(#SVGID_120_);fill:none;stroke:#000000;stroke-width:0.6;stroke-linejoin:round;stroke-dasharray:0.6,0.99;}
	.st60{clip-path:url(#SVGID_122_);fill:none;stroke:#000000;stroke-width:0.6;stroke-linejoin:round;stroke-dasharray:2.22,0.96;}
	.st61{fill:none;stroke:#262626;stroke-width:1.875;stroke-linecap:square;}
	.st62{fill:#DC143C;}
</style>
<g id="patch_3">
	<g>
		<defs>
			<rect id="SVGID_1_" x="63" y="25.9" width="390.6" height="163.1"/>
		</defs>
		<clipPath id="SVGID_2_">
			<use xlink:href="#SVGID_1_"  style="overflow:visible;"/>
		</clipPath>
		<path class="st0" d="M80.8,189h6.1v-3.2h-6.1V189z"/>
	</g>
</g>
<g id="patch_4">
	<g>
		<defs>
			<rect id="SVGID_3_" x="63" y="25.9" width="390.6" height="163.1"/>
		</defs>
		<clipPath id="SVGID_4_">
			<use xlink:href="#SVGID_3_"  style="overflow:visible;"/>
		</clipPath>
		<path class="st1" d="M86.9,189H93v-3.2h-6.1V189z"/>
	</g>
</g>
<g id="patch_5">
	<g>
		<defs>
			<rect id="SVGID_5_" x="63" y="25.9" width="390.6" height="163.1"/>
		</defs>
		<clipPath id="SVGID_6_">
			<use xlink:href="#SVGID_5_"  style="overflow:visible;"/>
		</clipPath>
		<path class="st2" d="M93,189h6.1v-3.2H93V189z"/>
	</g>
</g>
<g id="patch_6">
	<g>
		<defs>
			<rect id="SVGID_7_" x="63" y="25.9" width="390.6" height="163.1"/>
		</defs>
		<clipPath id="SVGID_8_">
			<use xlink:href="#SVGID_7_"  style="overflow:visible;"/>
		</clipPath>
		<path class="st3" d="M99.1,189h6.1l0,0H99.1z"/>
	</g>
</g>
<g id="patch_7">
	<g>
		<defs>
			<rect id="SVGID_9_" x="63" y="25.9" width="390.6" height="163.1"/>
		</defs>
		<clipPath id="SVGID_10_">
			<use xlink:href="#SVGID_9_"  style="overflow:visible;"/>
		</clipPath>
		<path class="st4" d="M105.2,189h6.1v-3.2h-6.1V189z"/>
	</g>
</g>
<g id="patch_8">
	<g>
		<defs>
			<rect id="SVGID_11_" x="63" y="25.9" width="390.6" height="163.1"/>
		</defs>
		<clipPath id="SVGID_12_">
			<use xlink:href="#SVGID_11_"  style="overflow:visible;"/>
		</clipPath>
		<path class="st5" d="M111.4,189h6.1v-3.2h-6.1V189z"/>
	</g>
</g>
<g id="patch_9">
	<g>
		<defs>
			<rect id="SVGID_13_" x="63" y="25.9" width="390.6" height="163.1"/>
		</defs>
		<clipPath id="SVGID_14_">
			<use xlink:href="#SVGID_13_"  style="overflow:visible;"/>
		</clipPath>
		<path class="st6" d="M117.5,189h6.1v-3.2h-6.1V189z"/>
	</g>
</g>
<g id="patch_10">
	<g>
		<defs>
			<rect id="SVGID_15_" x="63" y="25.9" width="390.6" height="163.1"/>
		</defs>
		<clipPath id="SVGID_16_">
			<use xlink:href="#SVGID_15_"  style="overflow:visible;"/>
		</clipPath>
		<path class="st7" d="M123.6,189h6.1v-6.5h-6.1V189z"/>
	</g>
</g>
<g id="patch_11">
	<g>
		<defs>
			<rect id="SVGID_17_" x="63" y="25.9" width="390.6" height="163.1"/>
		</defs>
		<clipPath id="SVGID_18_">
			<use xlink:href="#SVGID_17_"  style="overflow:visible;"/>
		</clipPath>
		<path class="st8" d="M129.7,189h6.1v-12.9h-6.1V189z"/>
	</g>
</g>
<g id="patch_12">
	<g>
		<defs>
			<rect id="SVGID_19_" x="63" y="25.9" width="390.6" height="163.1"/>
		</defs>
		<clipPath id="SVGID_20_">
			<use xlink:href="#SVGID_19_"  style="overflow:visible;"/>
		</clipPath>
		<path class="st9" d="M135.9,189h6.1v-12.9h-6.1V189z"/>
	</g>
</g>
<g id="patch_13">
	<g>
		<defs>
			<rect id="SVGID_21_" x="63" y="25.9" width="390.6" height="163.1"/>
		</defs>
		<clipPath id="SVGID_22_">
			<use xlink:href="#SVGID_21_"  style="overflow:visible;"/>
		</clipPath>
		<path class="st10" d="M142,189h6.1v-3.2H142V189z"/>
	</g>
</g>
<g id="patch_14">
	<g>
		<defs>
			<rect id="SVGID_23_" x="63" y="25.9" width="390.6" height="163.1"/>
		</defs>
		<clipPath id="SVGID_24_">
			<use xlink:href="#SVGID_23_"  style="overflow:visible;"/>
		</clipPath>
		<path class="st11" d="M148.1,189h6.1v-12.9h-6.1V189z"/>
	</g>
</g>
<g id="patch_15">
	<g>
		<defs>
			<rect id="SVGID_25_" x="63" y="25.9" width="390.6" height="163.1"/>
		</defs>
		<clipPath id="SVGID_26_">
			<use xlink:href="#SVGID_25_"  style="overflow:visible;"/>
		</clipPath>
		<path class="st12" d="M154.2,189h6.1v-19.4h-6.1V189z"/>
	</g>
</g>
<g id="patch_16">
	<g>
		<defs>
			<rect id="SVGID_27_" x="63" y="25.9" width="390.6" height="163.1"/>
		</defs>
		<clipPath id="SVGID_28_">
			<use xlink:href="#SVGID_27_"  style="overflow:visible;"/>
		</clipPath>
		<path class="st13" d="M160.3,189h6.1v-9.7h-6.1V189z"/>
	</g>
</g>
<g id="patch_17">
	<g>
		<defs>
			<rect id="SVGID_29_" x="63" y="25.9" width="390.6" height="163.1"/>
		</defs>
		<clipPath id="SVGID_30_">
			<use xlink:href="#SVGID_29_"  style="overflow:visible;"/>
		</clipPath>
		<path class="st14" d="M166.5,189h6.1v-29.1h-6.1V189z"/>
	</g>
</g>
<g id="patch_18">
	<g>
		<defs>
			<rect id="SVGID_31_" x="63" y="25.9" width="390.6" height="163.1"/>
		</defs>
		<clipPath id="SVGID_32_">
			<use xlink:href="#SVGID_31_"  style="overflow:visible;"/>
		</clipPath>
		<path class="st15" d="M172.6,189h6.1v-16.2h-6.1V189z"/>
	</g>
</g>
<g id="patch_19">
	<g>
		<defs>
			<rect id="SVGID_33_" x="63" y="25.9" width="390.6" height="163.1"/>
		</defs>
		<clipPath id="SVGID_34_">
			<use xlink:href="#SVGID_33_"  style="overflow:visible;"/>
		</clipPath>
		<path class="st16" d="M178.7,189h6.1v-16.2h-6.1V189z"/>
	</g>
</g>
<g id="patch_20">
	<g>
		<defs>
			<rect id="SVGID_35_" x="63" y="25.9" width="390.6" height="163.1"/>
		</defs>
		<clipPath id="SVGID_36_">
			<use xlink:href="#SVGID_35_"  style="overflow:visible;"/>
		</clipPath>
		<path class="st17" d="M184.8,189h6.1v-25.9h-6.1V189z"/>
	</g>
</g>
<g id="patch_21">
	<g>
		<defs>
			<rect id="SVGID_37_" x="63" y="25.9" width="390.6" height="163.1"/>
		</defs>
		<clipPath id="SVGID_38_">
			<use xlink:href="#SVGID_37_"  style="overflow:visible;"/>
		</clipPath>
		<path class="st18" d="M191,189h6.1v-12.9H191V189z"/>
	</g>
</g>
<g id="patch_22">
	<g>
		<defs>
			<rect id="SVGID_39_" x="63" y="25.9" width="390.6" height="163.1"/>
		</defs>
		<clipPath id="SVGID_40_">
			<use xlink:href="#SVGID_39_"  style="overflow:visible;"/>
		</clipPath>
		<path class="st19" d="M197.1,189h6.1v-38.8h-6.1V189z"/>
	</g>
</g>
<g id="patch_23">
	<g>
		<defs>
			<rect id="SVGID_41_" x="63" y="25.9" width="390.6" height="163.1"/>
		</defs>
		<clipPath id="SVGID_42_">
			<use xlink:href="#SVGID_41_"  style="overflow:visible;"/>
		</clipPath>
		<path class="st20" d="M203.2,189h6.1v-32.4h-6.1V189z"/>
	</g>
</g>
<g id="patch_24">
	<g>
		<defs>
			<rect id="SVGID_43_" x="63" y="25.9" width="390.6" height="163.1"/>
		</defs>
		<clipPath id="SVGID_44_">
			<use xlink:href="#SVGID_43_"  style="overflow:visible;"/>
		</clipPath>
		<path class="st21" d="M209.3,189h6.1v-55h-6.1V189z"/>
	</g>
</g>
<g id="patch_25">
	<g>
		<defs>
			<rect id="SVGID_45_" x="63" y="25.9" width="390.6" height="163.1"/>
		</defs>
		<clipPath id="SVGID_46_">
			<use xlink:href="#SVGID_45_"  style="overflow:visible;"/>
		</clipPath>
		<path class="st22" d="M215.4,189h6.1v-51.8h-6.1V189z"/>
	</g>
</g>
<g id="patch_26">
	<g>
		<defs>
			<rect id="SVGID_47_" x="63" y="25.9" width="390.6" height="163.1"/>
		</defs>
		<clipPath id="SVGID_48_">
			<use xlink:href="#SVGID_47_"  style="overflow:visible;"/>
		</clipPath>
		<path class="st23" d="M221.6,189h6.1v-45.3h-6.1V189z"/>
	</g>
</g>
<g id="patch_27">
	<g>
		<defs>
			<rect id="SVGID_49_" x="63" y="25.9" width="390.6" height="163.1"/>
		</defs>
		<clipPath id="SVGID_50_">
			<use xlink:href="#SVGID_49_"  style="overflow:visible;"/>
		</clipPath>
		<path class="st24" d="M227.7,189h6.1v-61.5h-6.1V189z"/>
	</g>
</g>
<g id="patch_28">
	<g>
		<defs>
			<rect id="SVGID_51_" x="63" y="25.9" width="390.6" height="163.1"/>
		</defs>
		<clipPath id="SVGID_52_">
			<use xlink:href="#SVGID_51_"  style="overflow:visible;"/>
		</clipPath>
		<path class="st25" d="M233.8,189h6.1v-42.1h-6.1V189z"/>
	</g>
</g>
<g id="patch_29">
	<g>
		<defs>
			<rect id="SVGID_53_" x="63" y="25.9" width="390.6" height="163.1"/>
		</defs>
		<clipPath id="SVGID_54_">
			<use xlink:href="#SVGID_53_"  style="overflow:visible;"/>
		</clipPath>
		<path class="st26" d="M239.9,189h6.1v-48.5h-6.1V189z"/>
	</g>
</g>
<g id="patch_30">
	<g>
		<defs>
			<rect id="SVGID_55_" x="63" y="25.9" width="390.6" height="163.1"/>
		</defs>
		<clipPath id="SVGID_56_">
			<use xlink:href="#SVGID_55_"  style="overflow:visible;"/>
		</clipPath>
		<path class="st27" d="M246.1,189h6.1V95.2h-6.1V189z"/>
	</g>
</g>
<g id="patch_31">
	<g>
		<defs>
			<rect id="SVGID_57_" x="63" y="25.9" width="390.6" height="163.1"/>
		</defs>
		<clipPath id="SVGID_58_">
			<use xlink:href="#SVGID_57_"  style="overflow:visible;"/>
		</clipPath>
		<path class="st28" d="M252.2,189h6.1v-74.4h-6.1V189z"/>
	</g>
</g>
<g id="patch_32">
	<g>
		<defs>
			<rect id="SVGID_59_" x="63" y="25.9" width="390.6" height="163.1"/>
		</defs>
		<clipPath id="SVGID_60_">
			<use xlink:href="#SVGID_59_"  style="overflow:visible;"/>
		</clipPath>
		<path class="st29" d="M258.3,189h6.1v-77.7h-6.1V189z"/>
	</g>
</g>
<g id="patch_33">
	<g>
		<defs>
			<rect id="SVGID_61_" x="63" y="25.9" width="390.6" height="163.1"/>
		</defs>
		<clipPath id="SVGID_62_">
			<use xlink:href="#SVGID_61_"  style="overflow:visible;"/>
		</clipPath>
		<path class="st30" d="M264.4,189h6.1v-74.4h-6.1V189z"/>
	</g>
</g>
<g id="patch_34">
	<g>
		<defs>
			<rect id="SVGID_63_" x="63" y="25.9" width="390.6" height="163.1"/>
		</defs>
		<clipPath id="SVGID_64_">
			<use xlink:href="#SVGID_63_"  style="overflow:visible;"/>
		</clipPath>
		<path class="st31" d="M270.5,189h6.1V75.8h-6.1V189z"/>
	</g>
</g>
<g id="patch_35">
	<g>
		<defs>
			<rect id="SVGID_65_" x="63" y="25.9" width="390.6" height="163.1"/>
		</defs>
		<clipPath id="SVGID_66_">
			<use xlink:href="#SVGID_65_"  style="overflow:visible;"/>
		</clipPath>
		<path class="st32" d="M276.7,189h6.1V88.7h-6.1V189z"/>
	</g>
</g>
<g id="patch_36">
	<g>
		<defs>
			<rect id="SVGID_67_" x="63" y="25.9" width="390.6" height="163.1"/>
		</defs>
		<clipPath id="SVGID_68_">
			<use xlink:href="#SVGID_67_"  style="overflow:visible;"/>
		</clipPath>
		<path class="st33" d="M282.8,189h6.1V75.8h-6.1V189z"/>
	</g>
</g>
<g id="patch_37">
	<g>
		<defs>
			<rect id="SVGID_69_" x="63" y="25.9" width="390.6" height="163.1"/>
		</defs>
		<clipPath id="SVGID_70_">
			<use xlink:href="#SVGID_69_"  style="overflow:visible;"/>
		</clipPath>
		<path class="st34" d="M288.9,189h6.1V56.3h-6.1V189z"/>
	</g>
</g>
<g id="patch_38">
	<g>
		<defs>
			<rect id="SVGID_71_" x="63" y="25.9" width="390.6" height="163.1"/>
		</defs>
		<clipPath id="SVGID_72_">
			<use xlink:href="#SVGID_71_"  style="overflow:visible;"/>
		</clipPath>
		<path class="st35" d="M295,189h6.1V66H295V189z"/>
	</g>
</g>
<g id="patch_39">
	<g>
		<defs>
			<rect id="SVGID_73_" x="63" y="25.9" width="390.6" height="163.1"/>
		</defs>
		<clipPath id="SVGID_74_">
			<use xlink:href="#SVGID_73_"  style="overflow:visible;"/>
		</clipPath>
		<path class="st36" d="M301.2,189h6.1V66h-6.1V189z"/>
	</g>
</g>
<g id="patch_40">
	<g>
		<defs>
			<rect id="SVGID_75_" x="63" y="25.9" width="390.6" height="163.1"/>
		</defs>
		<clipPath id="SVGID_76_">
			<use xlink:href="#SVGID_75_"  style="overflow:visible;"/>
		</clipPath>
		<path class="st37" d="M307.3,189h6.1V36.9h-6.1V189z"/>
	</g>
</g>
<g id="patch_41">
	<g>
		<defs>
			<rect id="SVGID_77_" x="63" y="25.9" width="390.6" height="163.1"/>
		</defs>
		<clipPath id="SVGID_78_">
			<use xlink:href="#SVGID_77_"  style="overflow:visible;"/>
		</clipPath>
		<path class="st38" d="M313.4,189h6.1V33.7h-6.1V189z"/>
	</g>
</g>
<g id="patch_42">
	<g>
		<defs>
			<rect id="SVGID_79_" x="63" y="25.9" width="390.6" height="163.1"/>
		</defs>
		<clipPath id="SVGID_80_">
			<use xlink:href="#SVGID_79_"  style="overflow:visible;"/>
		</clipPath>
		<path class="st39" d="M319.5,189h6.1V79h-6.1V189z"/>
	</g>
</g>
<g id="patch_43">
	<g>
		<defs>
			<rect id="SVGID_81_" x="63" y="25.9" width="390.6" height="163.1"/>
		</defs>
		<clipPath id="SVGID_82_">
			<use xlink:href="#SVGID_81_"  style="overflow:visible;"/>
		</clipPath>
		<path class="st40" d="M325.6,189h6.1V69.3h-6.1V189z"/>
	</g>
</g>
<g id="patch_44">
	<g>
		<defs>
			<rect id="SVGID_83_" x="63" y="25.9" width="390.6" height="163.1"/>
		</defs>
		<clipPath id="SVGID_84_">
			<use xlink:href="#SVGID_83_"  style="overflow:visible;"/>
		</clipPath>
		<path class="st41" d="M331.8,189h6.1V79h-6.1V189z"/>
	</g>
</g>
<g id="patch_45">
	<g>
		<defs>
			<rect id="SVGID_85_" x="63" y="25.9" width="390.6" height="163.1"/>
		</defs>
		<clipPath id="SVGID_86_">
			<use xlink:href="#SVGID_85_"  style="overflow:visible;"/>
		</clipPath>
		<path class="st42" d="M337.9,189h6.1V59.6h-6.1V189z"/>
	</g>
</g>
<g id="patch_46">
	<g>
		<defs>
			<rect id="SVGID_87_" x="63" y="25.9" width="390.6" height="163.1"/>
		</defs>
		<clipPath id="SVGID_88_">
			<use xlink:href="#SVGID_87_"  style="overflow:visible;"/>
		</clipPath>
		<path class="st43" d="M344,189h6.1V62.8H344V189z"/>
	</g>
</g>
<g id="patch_47">
	<g>
		<defs>
			<rect id="SVGID_89_" x="63" y="25.9" width="390.6" height="163.1"/>
		</defs>
		<clipPath id="SVGID_90_">
			<use xlink:href="#SVGID_89_"  style="overflow:visible;"/>
		</clipPath>
		<path class="st44" d="M350.1,189h6.1V75.8h-6.1V189z"/>
	</g>
</g>
<g id="patch_48">
	<g>
		<defs>
			<rect id="SVGID_91_" x="63" y="25.9" width="390.6" height="163.1"/>
		</defs>
		<clipPath id="SVGID_92_">
			<use xlink:href="#SVGID_91_"  style="overflow:visible;"/>
		</clipPath>
		<path class="st45" d="M356.3,189h6.1V95.2h-6.1V189z"/>
	</g>
</g>
<g id="patch_49">
	<g>
		<defs>
			<rect id="SVGID_93_" x="63" y="25.9" width="390.6" height="163.1"/>
		</defs>
		<clipPath id="SVGID_94_">
			<use xlink:href="#SVGID_93_"  style="overflow:visible;"/>
		</clipPath>
		<path class="st46" d="M362.4,189h6.1V72.5h-6.1V189z"/>
	</g>
</g>
<g id="patch_50">
	<g>
		<defs>
			<rect id="SVGID_95_" x="63" y="25.9" width="390.6" height="163.1"/>
		</defs>
		<clipPath id="SVGID_96_">
			<use xlink:href="#SVGID_95_"  style="overflow:visible;"/>
		</clipPath>
		<path class="st47" d="M368.5,189h6.1v-77.7h-6.1V189z"/>
	</g>
</g>
<g id="patch_51">
	<g>
		<defs>
			<rect id="SVGID_97_" x="63" y="25.9" width="390.6" height="163.1"/>
		</defs>
		<clipPath id="SVGID_98_">
			<use xlink:href="#SVGID_97_"  style="overflow:visible;"/>
		</clipPath>
		<path class="st48" d="M374.6,189h6.1v-71.2h-6.1V189z"/>
	</g>
</g>
<g id="patch_52">
	<g>
		<defs>
			<rect id="SVGID_99_" x="63" y="25.9" width="390.6" height="163.1"/>
		</defs>
		<clipPath id="SVGID_100_">
			<use xlink:href="#SVGID_99_"  style="overflow:visible;"/>
		</clipPath>
		<path class="st49" d="M380.7,189h6.1v-58.2h-6.1V189z"/>
	</g>
</g>
<g id="patch_53">
	<g>
		<defs>
			<rect id="SVGID_101_" x="63" y="25.9" width="390.6" height="163.1"/>
		</defs>
		<clipPath id="SVGID_102_">
			<use xlink:href="#SVGID_101_"  style="overflow:visible;"/>
		</clipPath>
		<path class="st50" d="M386.9,189h6.1v-71.2h-6.1V189z"/>
	</g>
</g>
<g id="patch_54">
	<g>
		<defs>
			<rect id="SVGID_103_" x="63" y="25.9" width="390.6" height="163.1"/>
		</defs>
		<clipPath id="SVGID_104_">
			<use xlink:href="#SVGID_103_"  style="overflow:visible;"/>
		</clipPath>
		<path class="st51" d="M393,189h6.1v-29.1H393V189z"/>
	</g>
</g>
<g id="patch_55">
	<g>
		<defs>
			<rect id="SVGID_105_" x="63" y="25.9" width="390.6" height="163.1"/>
		</defs>
		<clipPath id="SVGID_106_">
			<use xlink:href="#SVGID_105_"  style="overflow:visible;"/>
		</clipPath>
		<path class="st52" d="M399.1,189h6.1v-25.9h-6.1V189z"/>
	</g>
</g>
<g id="patch_56">
	<g>
		<defs>
			<rect id="SVGID_107_" x="63" y="25.9" width="390.6" height="163.1"/>
		</defs>
		<clipPath id="SVGID_108_">
			<use xlink:href="#SVGID_107_"  style="overflow:visible;"/>
		</clipPath>
		<path class="st53" d="M405.2,189h6.1v-25.9h-6.1V189z"/>
	</g>
</g>
<g id="patch_57">
	<g>
		<defs>
			<rect id="SVGID_109_" x="63" y="25.9" width="390.6" height="163.1"/>
		</defs>
		<clipPath id="SVGID_110_">
			<use xlink:href="#SVGID_109_"  style="overflow:visible;"/>
		</clipPath>
		<path class="st54" d="M411.4,189h6.1v-29.1h-6.1V189z"/>
	</g>
</g>
<g id="patch_58">
	<g>
		<defs>
			<rect id="SVGID_111_" x="63" y="25.9" width="390.6" height="163.1"/>
		</defs>
		<clipPath id="SVGID_112_">
			<use xlink:href="#SVGID_111_"  style="overflow:visible;"/>
		</clipPath>
		<path class="st55" d="M417.5,189h6.1v-12.9h-6.1V189z"/>
	</g>
</g>
<g id="patch_59">
	<g>
		<defs>
			<rect id="SVGID_113_" x="63" y="25.9" width="390.6" height="163.1"/>
		</defs>
		<clipPath id="SVGID_114_">
			<use xlink:href="#SVGID_113_"  style="overflow:visible;"/>
		</clipPath>
		<path class="st56" d="M423.6,189h6.1v-3.2h-6.1V189z"/>
	</g>
</g>
<g id="patch_60">
	<g>
		<defs>
			<rect id="SVGID_115_" x="63" y="25.9" width="390.6" height="163.1"/>
		</defs>
		<clipPath id="SVGID_116_">
			<use xlink:href="#SVGID_115_"  style="overflow:visible;"/>
		</clipPath>
		<path class="st57" d="M429.7,189h6.1v-6.5h-6.1V189z"/>
	</g>
</g>
<g id="line2d_1">
	<g>
		<defs>
			<rect id="SVGID_117_" x="63" y="25.9" width="390.6" height="163.1"/>
		</defs>
		<clipPath id="SVGID_118_">
			<use xlink:href="#SVGID_117_"  style="overflow:visible;"/>
		</clipPath>
		<path class="st58" d="M393.1,189V42.2"/>
	</g>
</g>
<g id="line2d_2">
	<g>
		<defs>
			<rect id="SVGID_119_" x="63" y="25.9" width="390.6" height="163.1"/>
		</defs>
		<clipPath id="SVGID_120_">
			<use xlink:href="#SVGID_119_"  style="overflow:visible;"/>
		</clipPath>
		<path class="st59" d="M365.5,189V42.2"/>
	</g>
</g>
<g id="line2d_3">
	<g>
		<defs>
			<rect id="SVGID_121_" x="63" y="25.9" width="390.6" height="163.1"/>
		</defs>
		<clipPath id="SVGID_122_">
			<use xlink:href="#SVGID_121_"  style="overflow:visible;"/>
		</clipPath>
		<path class="st60" d="M326.1,189V42.2"/>
	</g>
</g>
<g id="patch_61">
	<path class="st61" d="M63,189h390.6"/>
</g>
<g id="text_1">
	<g transform="translate(393.103414 205.825714)scale(0.108 -0.108)">
		<g>
			<path id="ArialMT-2e" class="st62" d="M9.1,0v10h10V0H9.1z"/>
		</g>
		<g>
			<path id="ArialMT-30" class="st62" d="M31.9,35.3c0,8.5,0.9,15.3,2.6,20.4c1.7,5.2,4.3,9.1,7.8,11.9c3.4,2.8,7.8,4.2,13,4.2
				c3.8,0,7.2-0.8,10.1-2.3c2.9-1.5,5.3-3.8,7.2-6.7c1.9-2.9,3.4-6.5,4.5-10.6c1.1-4.2,1.6-9.8,1.6-16.9c0-8.4-0.9-15.2-2.6-20.3
				c-1.7-5.2-4.3-9.1-7.7-12c-3.4-2.8-7.8-4.2-13-4.2C48.4-1.2,43,1.3,39,6.2C34.3,12.2,31.9,21.9,31.9,35.3z M41,35.3
				c0-11.8,1.4-19.6,4.1-23.5C47.8,7.9,51.2,6,55.3,6c4,0,7.4,2,10.2,5.9c2.8,3.9,4.1,11.7,4.1,23.4c0,11.8-1.4,19.6-4.1,23.5
				c-2.7,3.9-6.2,5.8-10.3,5.8c-4,0-7.3-1.7-9.7-5.1C42.5,55.1,41,47.1,41,35.3z"/>
		</g>
		<g>
			<path id="ArialMT-35" class="st62" d="M87.6,18.8l9.2,0.8c0.7-4.5,2.3-7.9,4.8-10.1c2.5-2.3,5.5-3.4,9-3.4
				c4.2,0,7.8,1.6,10.7,4.8c2.9,3.2,4.4,7.4,4.4,12.7c0,5-1.4,9-4.2,11.9c-2.8,2.9-6.5,4.4-11.1,4.4c-2.8,0-5.4-0.6-7.7-1.9
				c-2.3-1.3-4.1-2.9-5.4-5l-8.3,1.1L96,70.6h35.6v-8.4h-28.6L99.2,43c4.3,3,8.8,4.5,13.5,4.5c6.3,0,11.5-2.2,15.8-6.5
				c4.3-4.3,6.5-9.9,6.5-16.7c0-6.5-1.9-12.1-5.7-16.8c-4.6-5.8-10.9-8.7-18.8-8.7c-6.5,0-11.8,1.8-16,5.5
				C90.5,7.9,88.1,12.7,87.6,18.8z"/>
		</g>
	</g>
</g>
<g id="text_2">
	<g transform="translate(365.539473 205.825714)scale(0.108 -0.108)">
		<g>
			<path id="ArialMT-2e_1_" d="M9.1,0v10h10V0H9.1z"/>
		</g>
		<g>
			<path id="ArialMT-30_1_" d="M31.9,35.3c0,8.5,0.9,15.3,2.6,20.4c1.7,5.2,4.3,9.1,7.8,11.9c3.4,2.8,7.8,4.2,13,4.2
				c3.8,0,7.2-0.8,10.1-2.3c2.9-1.5,5.3-3.8,7.2-6.7c1.9-2.9,3.4-6.5,4.5-10.6c1.1-4.2,1.6-9.8,1.6-16.9c0-8.4-0.9-15.2-2.6-20.3
				c-1.7-5.2-4.3-9.1-7.7-12c-3.4-2.8-7.8-4.2-13-4.2C48.4-1.2,43,1.3,39,6.2C34.3,12.2,31.9,21.9,31.9,35.3z M41,35.3
				c0-11.8,1.4-19.6,4.1-23.5C47.8,7.9,51.2,6,55.3,6c4,0,7.4,2,10.2,5.9c2.8,3.9,4.1,11.7,4.1,23.4c0,11.8-1.4,19.6-4.1,23.5
				c-2.7,3.9-6.2,5.8-10.3,5.8c-4,0-7.3-1.7-9.7-5.1C42.5,55.1,41,47.1,41,35.3z"/>
		</g>
		<g>
			<path id="ArialMT-31" d="M120.6,0h-8.8v56c-2.1-2-4.9-4-8.3-6s-6.5-3.5-9.3-4.5v8.5c4.9,2.3,9.2,5.1,12.9,8.4
				c3.7,3.3,6.3,6.5,7.8,9.6h5.7V0z"/>
		</g>
	</g>
</g>
<g id="text_3">
	<g transform="translate(326.10439 205.825714)scale(0.108 -0.108)">
		<g>
			<path id="ArialMT-2e_2_" d="M9.1,0v10h10V0H9.1z"/>
		</g>
		<g>
			<path id="ArialMT-30_2_" d="M31.9,35.3c0,8.5,0.9,15.3,2.6,20.4c1.7,5.2,4.3,9.1,7.8,11.9c3.4,2.8,7.8,4.2,13,4.2
				c3.8,0,7.2-0.8,10.1-2.3c2.9-1.5,5.3-3.8,7.2-6.7c1.9-2.9,3.4-6.5,4.5-10.6c1.1-4.2,1.6-9.8,1.6-16.9c0-8.4-0.9-15.2-2.6-20.3
				c-1.7-5.2-4.3-9.1-7.7-12c-3.4-2.8-7.8-4.2-13-4.2C48.4-1.2,43,1.3,39,6.2C34.3,12.2,31.9,21.9,31.9,35.3z M41,35.3
				c0-11.8,1.4-19.6,4.1-23.5C47.8,7.9,51.2,6,55.3,6c4,0,7.4,2,10.2,5.9s4.1,11.7,4.1,23.4c0,11.8-1.4,19.6-4.1,23.5
				c-2.8,3.9-6.2,5.8-10.3,5.8c-4,0-7.3-1.7-9.7-5.1C42.5,55.1,41,47.1,41,35.3z"/>
		</g>
		<g>
			<path id="ArialMT-30_3_" d="M87.6,35.3c0,8.5,0.9,15.3,2.6,20.4c1.7,5.2,4.3,9.1,7.8,11.9c3.4,2.8,7.8,4.2,13,4.2
				c3.8,0,7.2-0.8,10.1-2.3c2.9-1.5,5.3-3.8,7.2-6.7c1.9-2.9,3.4-6.5,4.5-10.6c1.1-4.2,1.6-9.8,1.6-16.9c0-8.4-0.9-15.2-2.6-20.3
				c-1.7-5.2-4.3-9.1-7.7-12c-3.4-2.8-7.8-4.2-13-4.2c-6.9,0-12.3,2.5-16.3,7.4C89.9,12.2,87.6,21.9,87.6,35.3z M96.6,35.3
				c0-11.8,1.4-19.6,4.1-23.5c2.8-3.9,6.1-5.8,10.2-5.8c4,0,7.4,2,10.2,5.9s4.1,11.7,4.1,23.4c0,11.8-1.4,19.6-4.1,23.5
				c-2.8,3.9-6.2,5.8-10.3,5.8c-4,0-7.3-1.7-9.7-5.1C98.1,55.1,96.6,47.1,96.6,35.3z"/>
		</g>
		<g>
			<path id="ArialMT-31_1_" d="M176.3,0h-8.8v56c-2.1-2-4.9-4-8.3-6s-6.5-3.5-9.3-4.5v8.5c4.9,2.3,9.2,5.1,12.9,8.4
				c3.7,3.3,6.3,6.5,7.8,9.6h5.7V0z"/>
		</g>
	</g>
</g>
</svg>
