<svg id="Livello_1" data-name="Livello 1" xmlns="http://www.w3.org/2000/svg" xmlns:xlink="http://www.w3.org/1999/xlink" viewBox="0 0 509.66 648.09">
  <defs>
    <style>
      .cls-1 {
        fill: url(#Sfumatura_senza_nome_175);
      }

      .cls-2 {
        fill: #1d1d1b;
      }

      .cls-3 {
        fill: url(#Sfumatura_senza_nome_116);
      }

      .cls-4 {
        fill: url(#Sfumatura_senza_nome_175-2);
      }

      .cls-5 {
        fill: url(#Sfumatura_senza_nome_99);
      }

      .cls-6 {
        fill: url(#Sfumatura_senza_nome_122);
      }

      .cls-7 {
        fill: url(#Sfumatura_senza_nome_67);
      }
    </style>
    <linearGradient id="Sfumatura_senza_nome_175" data-name="Sfumatura senza nome 175" x1="232.21" y1="648.07" x2="232.22" y2="648.09" gradientUnits="userSpaceOnUse">
      <stop offset="0.19" stop-color="#4d2640"/>
      <stop offset="0.27" stop-color="#611d3b"/>
      <stop offset="0.38" stop-color="#741536"/>
      <stop offset="0.49" stop-color="#801033"/>
      <stop offset="0.6" stop-color="#840e32"/>
      <stop offset="0.94" stop-color="#e30527"/>
    </linearGradient>
    <linearGradient id="Sfumatura_senza_nome_116" data-name="Sfumatura senza nome 116" x1="453.55" y1="565.27" x2="536.93" y2="420.85" gradientUnits="userSpaceOnUse">
      <stop offset="0" stop-color="#fff" stop-opacity="0"/>
      <stop offset="0.03" stop-color="#fff" stop-opacity="0.17"/>
      <stop offset="0.08" stop-color="#fff" stop-opacity="0.39"/>
      <stop offset="0.13" stop-color="#fff" stop-opacity="0.57"/>
      <stop offset="0.18" stop-color="#fff" stop-opacity="0.73"/>
      <stop offset="0.22" stop-color="#fff" stop-opacity="0.85"/>
      <stop offset="0.27" stop-color="#fff" stop-opacity="0.93"/>
      <stop offset="0.31" stop-color="#fff" stop-opacity="0.98"/>
      <stop offset="0.35" stop-color="#fff"/>
    </linearGradient>
    <linearGradient id="Sfumatura_senza_nome_175-2" x1="440.16" y1="524.98" x2="440.17" y2="525" xlink:href="#Sfumatura_senza_nome_175"/>
    <linearGradient id="Sfumatura_senza_nome_99" data-name="Sfumatura senza nome 99" x1="280.94" y1="12.64" x2="62.97" y2="390.17" gradientUnits="userSpaceOnUse">
      <stop offset="0" stop-color="#fff" stop-opacity="0"/>
      <stop offset="0.03" stop-color="#fff" stop-opacity="0.17"/>
      <stop offset="0.07" stop-color="#fff" stop-opacity="0.38"/>
      <stop offset="0.11" stop-color="#fff" stop-opacity="0.57"/>
      <stop offset="0.15" stop-color="#fff" stop-opacity="0.73"/>
      <stop offset="0.18" stop-color="#fff" stop-opacity="0.85"/>
      <stop offset="0.22" stop-color="#fff" stop-opacity="0.93"/>
      <stop offset="0.26" stop-color="#fff" stop-opacity="0.98"/>
      <stop offset="0.29" stop-color="#fff"/>
    </linearGradient>
    <linearGradient id="Sfumatura_senza_nome_122" data-name="Sfumatura senza nome 122" x1="494.95" y1="563.76" x2="196.92" y2="47.56" gradientUnits="userSpaceOnUse">
      <stop offset="0" stop-color="#fff" stop-opacity="0"/>
      <stop offset="0.05" stop-color="#fff" stop-opacity="0.34"/>
      <stop offset="0.09" stop-color="#fff" stop-opacity="0.59"/>
      <stop offset="0.11" stop-color="#fff" stop-opacity="0.74"/>
      <stop offset="0.13" stop-color="#fff" stop-opacity="0.8"/>
      <stop offset="0.87" stop-color="#fff" stop-opacity="0.8"/>
      <stop offset="0.89" stop-color="#fff" stop-opacity="0.75"/>
      <stop offset="0.91" stop-color="#fff" stop-opacity="0.63"/>
      <stop offset="0.94" stop-color="#fff" stop-opacity="0.43"/>
      <stop offset="0.98" stop-color="#fff" stop-opacity="0.16"/>
      <stop offset="1" stop-color="#fff" stop-opacity="0"/>
    </linearGradient>
    <linearGradient id="Sfumatura_senza_nome_67" data-name="Sfumatura senza nome 67" x1="95.75" y1="436.67" x2="-5.77" y2="260.82" gradientUnits="userSpaceOnUse">
      <stop offset="0" stop-color="#fff" stop-opacity="0"/>
      <stop offset="0.01" stop-color="#fff" stop-opacity="0.19"/>
      <stop offset="0.02" stop-color="#fff" stop-opacity="0.38"/>
      <stop offset="0.03" stop-color="#fff" stop-opacity="0.54"/>
      <stop offset="0.04" stop-color="#fff" stop-opacity="0.68"/>
      <stop offset="0.05" stop-color="#fff" stop-opacity="0.8"/>
      <stop offset="0.06" stop-color="#fff" stop-opacity="0.89"/>
      <stop offset="0.07" stop-color="#fff" stop-opacity="0.95"/>
      <stop offset="0.08" stop-color="#fff" stop-opacity="0.99"/>
      <stop offset="0.1" stop-color="#fff"/>
      <stop offset="1" stop-color="#fff"/>
    </linearGradient>
  </defs>
  <g>
    <line class="cls-1" x1="232.21" y1="648.07" x2="232.22" y2="648.09"/>
    <line class="cls-2" x1="228.04" y1="507.72" x2="228.04" y2="507.72"/>
    <path class="cls-3" d="M449.66,534.93a247.61,247.61,0,0,0,55.16-132l.07-.61h-.37a147.11,147.11,0,0,1,8.35,22.35c4.89,17.23,5.35,31.05,5.63,41.3a197.42,197.42,0,0,1-3,42.84c-4.1,22.32-10.57,58.39-33.05,66.11a28.25,28.25,0,0,1-9.46,1.49,29,29,0,0,1-7.88-6.15,32.54,32.54,0,0,1-4.7-7c-1.54-2.89-1.48-3.55-4.26-10.5-1.9-4.75-2.12-4.91-3.25-7.93A104.27,104.27,0,0,1,449.66,534.93Z" transform="translate(-8.97 -6)"/>
    <line class="cls-2" x1="50.4" y1="421.27" x2="50.4" y2="421.27"/>
    <line class="cls-4" x1="440.16" y1="524.98" x2="440.17" y2="525"/>
    <path class="cls-5" d="M268.74,6h-.31l-61.14.15a.78.78,0,0,0-.22,0c-1.14.27-2.72.76-3.42,2.14a10.25,10.25,0,0,0-.6,1.46C200.32,17.94,75.14,381.45,75.18,381.33h0c2.73,3.31,6.2,7.36,10.35,11.86,2.44,2.64,6,6.47,10.87,11.11,5.81,5.53,10.47,9.34,17.22,14.85l.61.5a8.61,8.61,0,0,0,13.57-3.89l.15-.44c0-.1,7.24-21,7.28-21.15s13-37.79,13.15-38.23l89-258.69,0-.12c7.41-21.54,8.86-27.34,13.39-40.64,5.41-15.89,13.91-38.68,15.09-42.16.05-.14.47-1.38,1-3,0,0,.81-2.28.81-2.3.14-.37.28-.79.46-1.26a7,7,0,0,1,.49-1.23,1.1,1.1,0,0,1,.34-.4.78.78,0,0,1,.5-.09s-.11,0-.22,0A5,5,0,0,0,268.74,6Z" transform="translate(-8.97 -6)"/>
    <path class="cls-6" d="M400.75,567.82a19.7,19.7,0,0,0,6.13,5.78c2.82,1.67,5.61,2.34,10.51,2.89a113,113,0,0,0,14.89.62c9.87-.14,13.82-.47,22.24-.6,5.05-.08,9.14,0,11.69,0v0l6.54.12a29.16,29.16,0,0,1-9.83-8.57,29.79,29.79,0,0,1-3.31-6.14C453.74,548,452.08,543,452.08,543c-3-9.13-5.67-17.56-8-25.19L269.7,6.45a.65.65,0,0,0-1.23,0c-5.33,14.72-10.77,31.1-16,45.45-5.64,15.35-9.49,30.87-15.36,45.72v.32C319,337.27,378.78,511.58,384,526.86c1.39,4,4.82,13.93,10.23,26.6C397,559.75,399.3,564.77,400.75,567.82Z" transform="translate(-8.97 -6)"/>
    <path class="cls-7" d="M23,244.25c.13,0,.07.51.07.6-.23,2.49,1.72,31.92,32.17,98.91,5.49,12.08,11.4,24.26,20.47,36.87a172.54,172.54,0,0,0,12.23,15.11A196.49,196.49,0,0,0,102.62,410a50.78,50.78,0,0,0,5.25,4.45A33.6,33.6,0,0,0,124.59,420c-.3.19-.79.48-1.4.8a21.84,21.84,0,0,1-8,2.25A184.52,184.52,0,0,1,64,420.85l-2.62-.59c-.47-.16-1.17-.42-2-.77C34,409.12,25,378.23,17.4,356.67A151.66,151.66,0,0,1,9,307.32,133.38,133.38,0,0,1,14.6,266C17.06,258.07,22.3,244,23,244.25Z" transform="translate(-8.97 -6)"/>
  </g>
</svg>
